<mxfile host="app.diagrams.net" modified="2023-07-14T18:47:49.966Z" agent="Mozilla/5.0 (X11; Linux x86_64) AppleWebKit/537.36 (KHTML, like Gecko) Chrome/114.0.0.0 Safari/537.36" version="21.6.2" etag="h304h7sH-vEKz5Pd5UgR" type="github">
  <diagram name="PÃ¡gina-1" id="a75Q4dgeTDDlWVLBuHVs">
    <mxGraphModel>
      <root>
        <mxCell id="0" />
        <mxCell id="1" parent="0" />
      </root>
    </mxGraphModel>
  </diagram>
</mxfile>
